<svg xmlns="http://www.w3.org/2000/svg" xmlns:xlink="http://www.w3.org/1999/xlink" width="300pt" height="406pt" viewBox="0.00 0.00 300.00 406.40">
<g id="graph0" class="graph" transform="scale(1 1) rotate(0) translate(4 402.4)">
<title>architectures</title>
<polygon fill="white" stroke="none" points="-4,4 -4,-402.4 296,-402.4 296,4 -4,4"/>
<g id="clust1" class="cluster">
<title>cluster_MVC</title>
<polygon fill="none" stroke="black" points="8,-152 8,-390.4 98,-390.4 98,-152 8,-152"/>
<text text-anchor="middle" x="53" y="-373.8" font-family="Times,serif" font-size="14.00">MVC</text>
</g>
<g id="clust2" class="cluster">
<title>cluster_MVVM</title>
<polygon fill="none" stroke="black" points="106,-236.8 106,-313.6 204,-313.6 204,-236.8 106,-236.8"/>
<text text-anchor="middle" x="155" y="-297" font-family="Times,serif" font-size="14.00">MVVM</text>
</g>
<g id="clust3" class="cluster">
<title>cluster_VIPER</title>
<polygon fill="none" stroke="black" points="106,-8 106,-228.8 284,-228.8 284,-8 106,-8"/>
<text text-anchor="middle" x="195" y="-212.2" font-family="Times,serif" font-size="14.00">VIPER</text>
</g>
<!-- Model -->
<g id="node1" class="node">
<title>Model</title>
<polygon fill="lightblue" stroke="black" points="90,-357.6 36,-357.6 36,-321.6 90,-321.6 90,-357.6"/>
<text text-anchor="middle" x="63" y="-335.4" font-family="Times,serif" font-size="14.00">Model</text>
</g>
<!-- View -->
<g id="node2" class="node">
<title>View</title>
<polygon fill="lightblue" stroke="black" points="90,-280.8 36,-280.8 36,-244.8 90,-244.8 90,-280.8"/>
<text text-anchor="middle" x="63" y="-258.6" font-family="Times,serif" font-size="14.00">View</text>
</g>
<!-- Model&#45;&gt;View -->
<g id="edge1" class="edge">
<title>Model-&gt;View</title>
<path fill="none" stroke="black" d="M63,-321.25C63,-312.66 63,-302.07 63,-292.32"/>
<polygon fill="black" stroke="black" points="66.5,-292.57 63,-282.57 59.5,-292.57 66.5,-292.57"/>
</g>
<!-- ViewModel -->
<g id="node4" class="node">
<title>ViewModel</title>
<polygon fill="lightgreen" stroke="black" points="196.44,-280.8 113.56,-280.8 113.56,-244.8 196.44,-244.8 196.44,-280.8"/>
<text text-anchor="middle" x="155" y="-258.6" font-family="Times,serif" font-size="14.00">ViewModel</text>
</g>
<!-- Model&#45;&gt;ViewModel -->
<g id="edge4" class="edge">
<title>Model-&gt;ViewModel</title>
<path fill="none" stroke="black" d="M90.3,-322.02C94.31,-319.32 98.32,-316.47 102,-313.6 111.56,-306.15 121.4,-297.28 129.97,-289.11"/>
<polygon fill="black" stroke="black" points="132.24,-291.78 136.97,-282.3 127.36,-286.76 132.24,-291.78"/>
</g>
<!-- Controller -->
<g id="node3" class="node">
<title>Controller</title>
<polygon fill="lightgreen" stroke="black" points="89.77,-196 16.23,-196 16.23,-160 89.77,-160 89.77,-196"/>
<text text-anchor="middle" x="53" y="-173.8" font-family="Times,serif" font-size="14.00">Controller</text>
</g>
<!-- View&#45;&gt;Controller -->
<g id="edge2" class="edge">
<title>View-&gt;Controller</title>
<path fill="none" stroke="black" d="M60.93,-244.64C59.64,-233.95 57.94,-219.92 56.45,-207.57"/>
<polygon fill="black" stroke="black" points="59.96,-207.43 55.29,-197.92 53.01,-208.27 59.96,-207.43"/>
</g>
<!-- View&#45;&gt;ViewModel -->
<g id="edge6" class="edge">
<title>View-&gt;ViewModel</title>
<path fill="none" stroke="black" d="M90.31,-262.8C94.14,-262.8 97.98,-262.8 101.81,-262.8"/>
<polygon fill="black" stroke="black" points="101.79,-266.3 111.79,-262.8 101.79,-259.3 101.79,-266.3"/>
</g>
<!-- Presenter -->
<g id="node5" class="node">
<title>Presenter</title>
<polygon fill="lightgreen" stroke="black" points="192.04,-196 123.96,-196 123.96,-160 192.04,-160 192.04,-196"/>
<text text-anchor="middle" x="158" y="-173.8" font-family="Times,serif" font-size="14.00">Presenter</text>
</g>
<!-- View&#45;&gt;Presenter -->
<g id="edge7" class="edge">
<title>View-&gt;Presenter</title>
<path fill="none" stroke="black" d="M83.73,-244.43C89.65,-239.41 96.1,-233.91 102,-228.8 111.21,-220.81 121.19,-211.99 130.13,-204.02"/>
<polygon fill="black" stroke="black" points="132.41,-206.68 137.54,-197.41 127.75,-201.46 132.41,-206.68"/>
</g>
<!-- Controller&#45;&gt;Model -->
<g id="edge3" class="edge">
<title>Controller-&gt;Model</title>
<path fill="none" stroke="black" d="M42.94,-196.18C28.77,-222.81 6.81,-275.01 27,-313.6 27.4,-314.36 27.83,-315.1 28.29,-315.82"/>
<polygon fill="black" stroke="black" points="25.46,-317.91 34.72,-323.06 30.7,-313.26 25.46,-317.91"/>
</g>
<!-- ViewModel&#45;&gt;View -->
<g id="edge5" class="edge">
<title>ViewModel-&gt;View</title>
<path fill="none" stroke="black" d="M113.31,-262.8C109.47,-262.8 105.64,-262.8 101.81,-262.8"/>
<polygon fill="black" stroke="black" points="101.83,-259.3 91.83,-262.8 101.83,-266.3 101.83,-259.3"/>
</g>
<!-- Interactor -->
<g id="node6" class="node">
<title>Interactor</title>
<polygon fill="lightgreen" stroke="black" points="184.2,-124 113.8,-124 113.8,-88 184.2,-88 184.2,-124"/>
<text text-anchor="middle" x="149" y="-101.8" font-family="Times,serif" font-size="14.00">Interactor</text>
</g>
<!-- Presenter&#45;&gt;Interactor -->
<g id="edge8" class="edge">
<title>Presenter-&gt;Interactor</title>
<path fill="none" stroke="black" d="M155.78,-159.7C154.83,-152.32 153.7,-143.52 152.63,-135.25"/>
<polygon fill="black" stroke="black" points="156.14,-135.08 151.39,-125.61 149.2,-135.97 156.14,-135.08"/>
</g>
<!-- Router -->
<g id="node7" class="node">
<title>Router</title>
<polygon fill="lightgreen" stroke="black" points="276.05,-124 221.95,-124 221.95,-88 276.05,-88 276.05,-124"/>
<text text-anchor="middle" x="249" y="-101.8" font-family="Times,serif" font-size="14.00">Router</text>
</g>
<!-- Presenter&#45;&gt;Router -->
<g id="edge11" class="edge">
<title>Presenter-&gt;Router</title>
<path fill="none" stroke="black" d="M180.49,-159.7C191.65,-151.11 205.31,-140.61 217.49,-131.24"/>
<polygon fill="black" stroke="black" points="219.46,-134.14 225.25,-125.27 215.19,-128.59 219.46,-134.14"/>
</g>
<!-- Entity -->
<g id="node8" class="node">
<title>Entity</title>
<polygon fill="lightgreen" stroke="black" points="203,-52 149,-52 149,-16 203,-16 203,-52"/>
<text text-anchor="middle" x="176" y="-29.8" font-family="Times,serif" font-size="14.00">Entity</text>
</g>
<!-- Interactor&#45;&gt;Entity -->
<g id="edge9" class="edge">
<title>Interactor-&gt;Entity</title>
<path fill="none" stroke="black" d="M155.67,-87.7C158.58,-80.15 162.07,-71.12 165.32,-62.68"/>
<polygon fill="black" stroke="black" points="168.52,-64.11 168.86,-53.52 161.99,-61.59 168.52,-64.11"/>
</g>
<!-- Router&#45;&gt;View -->
<g id="edge12" class="edge">
<title>Router-&gt;View</title>
<path fill="none" stroke="black" d="M247.77,-124.13C244.8,-151.3 234.78,-203.76 201,-228.8 183.27,-241.95 122.91,-229.75 102,-236.8 100.03,-237.47 98.06,-238.25 96.11,-239.13"/>
<polygon fill="black" stroke="black" points="94.51,-236.01 87.31,-243.78 97.79,-242.2 94.51,-236.01"/>
</g>
<!-- Entity&#45;&gt;Presenter -->
<g id="edge10" class="edge">
<title>Entity-&gt;Presenter</title>
<path fill="none" stroke="black" d="M184.16,-52.31C191.58,-70.44 200.33,-99.59 193,-124 190.2,-133.31 185.18,-142.49 179.8,-150.53"/>
<polygon fill="black" stroke="black" points="177.08,-148.32 174.07,-158.48 182.76,-152.41 177.08,-148.32"/>
</g>
</g>
</svg>